<svg width="48" height="48" viewBox="0 0 48 48" fill="none" xmlns="http://www.w3.org/2000/svg">
<path d="M12 12C12 10.9391 12.4214 9.92172 13.1716 9.17157C13.9217 8.42143 14.9391 8 16 8C16.5304 8 17.0391 7.78929 17.4142 7.41421C17.7893 7.03914 18 6.53043 18 6C18 5.46957 17.7893 4.96086 17.4142 4.58579C17.0391 4.21071 16.5304 4 16 4C13.8783 4 11.8434 4.84285 10.3431 6.34315C8.84285 7.84344 8 9.87827 8 12V18C8 19.0609 7.57857 20.0783 6.82843 20.8284C6.07828 21.5786 5.06087 22 4 22C3.46957 22 2.96086 22.2107 2.58579 22.5858C2.21071 22.9609 2 23.4696 2 24C2 24.5304 2.21071 25.0391 2.58579 25.4142C2.96086 25.7893 3.46957 26 4 26C5.06087 26 6.07828 26.4214 6.82843 27.1716C7.57857 27.9217 8 28.9391 8 30V36C8 38.1217 8.84285 40.1566 10.3431 41.6569C11.8434 43.1571 13.8783 44 16 44C16.5304 44 17.0391 43.7893 17.4142 43.4142C17.7893 43.0391 18 42.5304 18 42C18 41.4696 17.7893 40.9609 17.4142 40.5858C17.0391 40.2107 16.5304 40 16 40C14.9391 40 13.9217 39.5786 13.1716 38.8284C12.4214 38.0783 12 37.0609 12 36V30C11.9936 28.8611 11.744 27.7366 11.2681 26.7019C10.7921 25.6672 10.1006 24.746 9.24 24C10.1006 23.254 10.7921 22.3328 11.2681 21.2981C11.744 20.2634 11.9936 19.1389 12 18V12ZM44 22C42.9391 22 41.9217 21.5786 41.1716 20.8284C40.4214 20.0783 40 19.0609 40 18V12C40 9.87827 39.1571 7.84344 37.6569 6.34315C36.1566 4.84285 34.1217 4 32 4C31.4696 4 30.9609 4.21071 30.5858 4.58579C30.2107 4.96086 30 5.46957 30 6C30 6.53043 30.2107 7.03914 30.5858 7.41421C30.9609 7.78929 31.4696 8 32 8C33.0609 8 34.0783 8.42143 34.8284 9.17157C35.5786 9.92172 36 10.9391 36 12V18C36.0064 19.1389 36.256 20.2634 36.7319 21.2981C37.2079 22.3328 37.8994 23.254 38.76 24C37.8994 24.746 37.2079 25.6672 36.7319 26.7019C36.256 27.7366 36.0064 28.8611 36 30V36C36 37.0609 35.5786 38.0783 34.8284 38.8284C34.0783 39.5786 33.0609 40 32 40C31.4696 40 30.9609 40.2107 30.5858 40.5858C30.2107 40.9609 30 41.4696 30 42C30 42.5304 30.2107 43.0391 30.5858 43.4142C30.9609 43.7893 31.4696 44 32 44C34.1217 44 36.1566 43.1571 37.6569 41.6569C39.1571 40.1566 40 38.1217 40 36V30C40 28.9391 40.4214 27.9217 41.1716 27.1716C41.9217 26.4214 42.9391 26 44 26C44.5304 26 45.0391 25.7893 45.4142 25.4142C45.7893 25.0391 46 24.5304 46 24C46 23.4696 45.7893 22.9609 45.4142 22.5858C45.0391 22.2107 44.5304 22 44 22Z" fill="#986DFF"/>
</svg>
